<mxfile host="app.diagrams.net" modified="2023-05-19T08:43:30.087Z" agent="Mozilla/5.0 (Windows NT 10.0; Win64; x64) AppleWebKit/537.36 (KHTML, like Gecko) Chrome/113.0.0.0 Safari/537.36 Edg/113.0.1774.42" etag="R2X35MFcfmO-rU4Zu4Pf" version="21.3.2" type="device">
  <diagram name="Pagina-1" id="Ps2w55uN_sJ4KGaAGz96">
    <mxGraphModel dx="1674" dy="834" grid="0" gridSize="10" guides="1" tooltips="1" connect="1" arrows="1" fold="1" page="1" pageScale="1" pageWidth="2339" pageHeight="3300" math="0" shadow="0">
      <root>
        <mxCell id="0" />
        <mxCell id="1" parent="0" />
        <mxCell id="WewondA9_xGEMXDrlP7i-1" value="Presentation layer" style="rounded=0;whiteSpace=wrap;html=1;" parent="1" vertex="1">
          <mxGeometry x="560" y="52" width="280" height="80" as="geometry" />
        </mxCell>
        <mxCell id="WewondA9_xGEMXDrlP7i-2" value="Buisness logic layer" style="rounded=0;whiteSpace=wrap;html=1;" parent="1" vertex="1">
          <mxGeometry x="560" y="240" width="280" height="80" as="geometry" />
        </mxCell>
        <mxCell id="WewondA9_xGEMXDrlP7i-3" value="Data acces layer" style="rounded=0;whiteSpace=wrap;html=1;" parent="1" vertex="1">
          <mxGeometry x="560" y="419" width="280" height="80" as="geometry" />
        </mxCell>
        <mxCell id="WewondA9_xGEMXDrlP7i-4" value="Data base" style="rounded=0;whiteSpace=wrap;html=1;" parent="1" vertex="1">
          <mxGeometry x="560" y="591" width="280" height="80" as="geometry" />
        </mxCell>
        <mxCell id="WewondA9_xGEMXDrlP7i-6" value="" style="endArrow=classic;html=1;rounded=0;exitX=0.5;exitY=1;exitDx=0;exitDy=0;entryX=0.5;entryY=0;entryDx=0;entryDy=0;" parent="1" source="WewondA9_xGEMXDrlP7i-1" target="WewondA9_xGEMXDrlP7i-2" edge="1">
          <mxGeometry width="50" height="50" relative="1" as="geometry">
            <mxPoint x="820" y="450" as="sourcePoint" />
            <mxPoint x="870" y="400" as="targetPoint" />
          </mxGeometry>
        </mxCell>
        <mxCell id="WewondA9_xGEMXDrlP7i-7" value="" style="endArrow=classic;html=1;rounded=0;exitX=0.5;exitY=0;exitDx=0;exitDy=0;entryX=0.5;entryY=1;entryDx=0;entryDy=0;" parent="1" source="WewondA9_xGEMXDrlP7i-3" target="WewondA9_xGEMXDrlP7i-2" edge="1">
          <mxGeometry width="50" height="50" relative="1" as="geometry">
            <mxPoint x="820" y="450" as="sourcePoint" />
            <mxPoint x="870" y="400" as="targetPoint" />
          </mxGeometry>
        </mxCell>
        <mxCell id="WewondA9_xGEMXDrlP7i-12" value="" style="endArrow=block;dashed=1;endFill=0;endSize=12;html=1;rounded=0;entryX=0;entryY=0.5;entryDx=0;entryDy=0;exitX=0;exitY=0.5;exitDx=0;exitDy=0;" parent="1" source="WewondA9_xGEMXDrlP7i-1" target="WewondA9_xGEMXDrlP7i-3" edge="1">
          <mxGeometry width="160" relative="1" as="geometry">
            <mxPoint x="511" y="227" as="sourcePoint" />
            <mxPoint x="886" y="368" as="targetPoint" />
            <Array as="points">
              <mxPoint x="515" y="92" />
              <mxPoint x="511" y="459" />
            </Array>
          </mxGeometry>
        </mxCell>
        <mxCell id="j2DZh7-QWopuQNij_cYw-1" value="sends requests, recieves response" style="text;html=1;strokeColor=none;fillColor=none;align=center;verticalAlign=middle;whiteSpace=wrap;rounded=0;" vertex="1" parent="1">
          <mxGeometry x="700" y="167" width="105" height="30" as="geometry" />
        </mxCell>
        <mxCell id="j2DZh7-QWopuQNij_cYw-4" value="Manipulates data, requests data,&lt;br&gt;recieves data" style="text;html=1;strokeColor=none;fillColor=none;align=center;verticalAlign=middle;whiteSpace=wrap;rounded=0;" vertex="1" parent="1">
          <mxGeometry x="702" y="517" width="105" height="51" as="geometry" />
        </mxCell>
        <mxCell id="j2DZh7-QWopuQNij_cYw-5" value="" style="endArrow=classic;html=1;rounded=0;exitX=0.5;exitY=1;exitDx=0;exitDy=0;entryX=0.5;entryY=0;entryDx=0;entryDy=0;" edge="1" parent="1" source="WewondA9_xGEMXDrlP7i-3" target="WewondA9_xGEMXDrlP7i-4">
          <mxGeometry width="50" height="50" relative="1" as="geometry">
            <mxPoint x="710" y="429" as="sourcePoint" />
            <mxPoint x="710" y="330" as="targetPoint" />
          </mxGeometry>
        </mxCell>
        <mxCell id="j2DZh7-QWopuQNij_cYw-6" value="recieves requests,&lt;br&gt;sends data" style="text;html=1;strokeColor=none;fillColor=none;align=center;verticalAlign=middle;whiteSpace=wrap;rounded=0;" vertex="1" parent="1">
          <mxGeometry x="702" y="344" width="105" height="51" as="geometry" />
        </mxCell>
        <mxCell id="j2DZh7-QWopuQNij_cYw-7" value="recieves which dal to use" style="text;html=1;strokeColor=none;fillColor=none;align=center;verticalAlign=middle;whiteSpace=wrap;rounded=0;" vertex="1" parent="1">
          <mxGeometry x="414" y="254.5" width="89" height="51" as="geometry" />
        </mxCell>
      </root>
    </mxGraphModel>
  </diagram>
</mxfile>
